# xmcd
#
# Track frame offsets:
#	150
#	14287
#	36025
#	62117
#	80535
#	99240
#	120692
#	122465
#	141010
#	161950
#	184947
#	205240
#	222702
#
# Disc length: 3366 seconds
#
# Revision: 1
# Processed by: cddbd v1.5.2PL0 Copyright (c) Steve Scherf et al.
# Submitted via: audiograbber 1.83.01
#
DISCID=b90d240d
DTITLE=Cleveland City Crooks - Dead Wrong
DYEAR=1999
DGENRE=Rap
TTITLE0=Young Gunz
TTITLE1=Currency
TTITLE2=Satisfaction
TTITLE3=Want You Dead
TTITLE4=Gang Warz
TTITLE5=Throw Ya' Hands Up
TTITLE6=Day's Prayer
TTITLE7=I Got Love For My G'z
TTITLE8=All My Dogs
TTITLE9=Animosity
TTITLE10=Come On
TTITLE11=Sticky
TTITLE12=Showtime!
EXTD=www.RapMusicGuide.com
EXTT0=
EXTT1=
EXTT2=
EXTT3=
EXTT4=
EXTT5=
EXTT6=
EXTT7=
EXTT8=
EXTT9=
EXTT10=
EXTT11=
EXTT12=
PLAYORDER=
